HIERARCHY
ROOT Hips
{
  OFFSET 54.9823 86.2724 17.1856
  CHANNELS 6 Xposition Yposition Zposition Zrotation Xrotation Yrotation
  JOINT spine
  {
    OFFSET 0 6.84637 0.3937
    CHANNELS 3 Zrotation Xrotation Yrotation
    JOINT spine1
    {
      OFFSET 0 9.49621 0
      CHANNELS 3 Zrotation Xrotation Yrotation
      JOINT spine2
      {
        OFFSET 0 9.09909 0
        CHANNELS 3 Zrotation Xrotation Yrotation
        JOINT Neck
        {
          OFFSET 0 23.3612 1.11378
          CHANNELS 3 Zrotation Xrotation Yrotation
          JOINT Head
          {
            OFFSET 0 7.05802 0
            CHANNELS 3 Zrotation Xrotation Yrotation
            End Site
            {
              OFFSET 0 17.0844 -5.63419
            }
          }
        }
        JOINT RightShoulder
        {
          OFFSET -3.83136 9.82631 -0.533491
          CHANNELS 3 Zrotation Xrotation Yrotation
          JOINT RightArm
          {
            OFFSET 0 12.8881 0
            CHANNELS 3 Zrotation Xrotation Yrotation
            JOINT RightArmRoll
            {
              OFFSET 0 6.50617 0
              CHANNELS 3 Zrotation Xrotation Yrotation
              JOINT RightForeArm
              {
                OFFSET 0 18.9501 0
                CHANNELS 3 Zrotation Xrotation Yrotation
                JOINT RightForeArmRoll
                {
                  OFFSET 0 7.30093 0
                  CHANNELS 3 Zrotation Xrotation Yrotation
                  JOINT RightHand
                  {
                    OFFSET 0 14.6514 0
                    CHANNELS 3 Zrotation Xrotation Yrotation
                    End Site
                    {
                      OFFSET 0 0 0
                    }
                  }
                }
              }
            }
          }
        }
        JOINT LeftShoulder
        {
          OFFSET 3.83136 9.82631 -0.533491
          CHANNELS 3 Zrotation Xrotation Yrotation
          JOINT LeftArm
          {
            OFFSET 0 12.8881 0
            CHANNELS 3 Zrotation Xrotation Yrotation
            JOINT LeftArmRoll
            {
              OFFSET 0 6.50617 0
              CHANNELS 3 Zrotation Xrotation Yrotation
              JOINT LeftForeArm
              {
                OFFSET 0 18.9501 0
                CHANNELS 3 Zrotation Xrotation Yrotation
                JOINT LeftForeArmRoll
                {
                  OFFSET 0 7.30092 0
                  CHANNELS 3 Zrotation Xrotation Yrotation
                  JOINT LeftHand
                  {
                    OFFSET 0 14.6514 0
                    CHANNELS 3 Zrotation Xrotation Yrotation
                    End Site
                    {
                      OFFSET 0 0 0
                    }
                  }
                }
              }
            }
          }
        }
      }
    }
  }
  JOINT RightUpLeg
  {
    OFFSET -6.06837 -1.11278 -0.933477
    CHANNELS 3 Zrotation Xrotation Yrotation
    JOINT RightUpLegRoll
    {
      OFFSET 0 17.1796 0
      CHANNELS 3 Zrotation Xrotation Yrotation
      JOINT RightLeg
      {
        OFFSET 0 -21.2743 0
        CHANNELS 3 Zrotation Xrotation Yrotation
        JOINT RightLegRoll
        {
          OFFSET 0 21.3439 0
          CHANNELS 3 Zrotation Xrotation Yrotation
          JOINT RightFoot
          {
            OFFSET 0 17.7652 0
            CHANNELS 3 Zrotation Xrotation Yrotation
            JOINT RightToeBase
            {
              OFFSET 0 14.8508 0
              CHANNELS 3 Zrotation Xrotation Yrotation
              End Site
              {
                OFFSET 0.0062947 7.19214 -0.829004
              }
            }
          }
        }
      }
    }
  }
  JOINT LeftUpLeg
  {
    OFFSET 6.06837 -1.11278 -0.933477
    CHANNELS 3 Zrotation Xrotation Yrotation
    JOINT LeftUpLegRoll
    {
      OFFSET 0 17.1797 0
      CHANNELS 3 Zrotation Xrotation Yrotation
      JOINT LeftLeg
      {
        OFFSET 0 21.2742 0
        CHANNELS 3 Zrotation Xrotation Yrotation
        JOINT LeftLegRoll
        {
          OFFSET 0 21.5412 0
          CHANNELS 3 Zrotation Xrotation Yrotation
          JOINT LeftFoot
          {
            OFFSET 0 17.5679 0
            CHANNELS 3 Zrotation Xrotation Yrotation
            JOINT LeftToeBase
            {
              OFFSET 0 14.8508 0
              CHANNELS 3 Zrotation Xrotation Yrotation
              End Site
              {
                OFFSET -0.0282102 7.19214 -0.829005
              }
            }
          }
        }
      }
    }
  }
}
MOTION
Frames: 8
Frame Time: 0.00208333
52.8765 82.2667 4.04733 -1.53898 8.50878 2.15424 1.58528 -2.69979 0.626684 3.18799 -1.38295 1.12231 3.17435 0.26052 1.06898 -16.3722 -7.9077 -5.72284 13.1535 8.83741 -7.64017 45.6829 -7.84102 -4.42231 67.3074 37.3858 57.673 7.79705e-008 3.48043e-007 -3.42476e-006 -2.83463 -0.0243128 0.678744 -9.86611e-006 6.38615e-007 -3.05639 8.02891 -4.95145 0.697676 -65.4311 -8.21455 5.24604 -76.861 49.0249 -64.0587 5.22341e-006 -3.22024e-006 9.08842e-006 13.7851 1.68979 -4.23258 1.53317e-005 -9.01267e-007 2.99329 -8.02889 -4.95141 -0.697695 172.094 31.9516 6.98002 180 7.01636e-015 179.429 167.991 43.41 -175.199 6.60157e-006 1.73317e-006 0.167087 -51.5879 80.9373 50.9268 8.13564 25.2327 -3.48737 -174.554 31.4175 -4.05244 4.54188e-006 -4.67731e-006 -0.645176 -7.73769 -45.542 -3.00838 2.21457e-006 -1.97484e-007 -0.509752 69.5752 82.5419 -68.9208 -8.13446 25.2328 3.48687 
52.8666 82.4297 4.05652 -1.53487 8.42956 2.20231 1.5806 -2.71545 0.619877 3.17854 -1.41447 1.10952 3.16502 0.229014 1.05634 -16.4308 -7.68223 -5.6935 13.2079 8.86711 -7.65539 45.4208 -7.83946 -4.411 66.7406 37.7005 58.0072 7.79705e-008 3.48043e-007 -3.42476e-006 -2.86394 -0.0245485 0.681969 -9.86611e-006 6.38615e-007 -3.0545 8.02891 -4.95145 0.697676 -65.2913 -8.26513 5.27092 -76.2058 49.6248 -64.4884 5.22341e-006 -3.22024e-006 9.08842e-006 13.8178 1.97431 -4.27696 1.53317e-005 -9.01268e-007 2.9931 -8.02889 -4.95141 -0.697695 172.149 31.6051 6.90023 180 7.01635e-015 179.42 168.123 42.8958 -175.337 6.60157e-006 1.73317e-006 0.165396 -50.3811 80.776 49.7401 8.13565 25.2327 -3.48738 -174.661 31.0925 -3.93195 4.54188e-006 -4.67731e-006 -0.656609 -7.58024 -45.0371 -2.88493 2.21457e-006 -1.97484e-007 -0.517229 67.7431 82.444 -67.1159 -8.13448 25.2328 3.48688 
52.8901 82.5511 4.09074 -1.52987 8.35154 2.24956 1.57602 -2.7312 0.613131 3.16929 -1.44619 1.09685 3.1559 0.197303 1.04382 -16.4952 -7.45479 -5.66338 13.2671 8.89801 -7.67083 45.1532 -7.83692 -4.39885 66.1772 38.0125 58.3466 7.79705e-008 3.48043e-007 -3.42476e-006 -2.89453 -0.0246518 0.685318 -9.86611e-006 6.38615e-007 -3.05256 8.02891 -4.95145 0.697676 -65.155 -8.3177 5.29706 -75.5299 50.2296 -64.9276 5.22341e-006 -3.22024e-006 9.08842e-006 13.8447 2.26418 -4.32137 1.53317e-005 -9.01267e-007 2.9932 -8.02889 -4.95141 -0.697695 172.209 31.2539 6.8157 180 7.01634e-015 179.41 168.264 42.3689 -175.481 6.60157e-006 1.73317e-006 0.164962 -49.18 80.6069 48.563 8.13565 25.2327 -3.48738 -174.772 30.7615 -3.80835 4.54188e-006 -4.67731e-006 -0.668662 -7.4186 -44.5189 -2.7596 2.21457e-006 -1.97484e-007 -0.525369 65.9137 82.3364 -65.3158 -8.13449 25.2328 3.48688 
52.8788 82.7187 4.1108 -1.5241 8.27441 2.29556 1.57157 -2.74693 0.606677 3.16028 -1.47785 1.08475 3.147 0.165654 1.03186 -16.5641 -7.22567 -5.63299 13.3304 8.92957 -7.68678 44.8814 -7.83428 -4.38664 65.6152 38.3224 58.6912 7.79705e-008 3.48043e-007 -3.42476e-006 -2.92612 -0.0246528 0.688751 -9.86611e-006 6.38615e-007 -3.05059 8.02891 -4.95145 0.697676 -65.021 -8.37147 5.32401 -74.8341 50.8383 -65.3772 5.22341e-006 -3.22024e-006 9.08842e-006 13.8683 2.5521 -4.36512 1.53317e-005 -9.01267e-007 2.99357 -8.02889 -4.95141 -0.697695 172.274 30.8969 6.72644 180 7.01632e-015 179.399 168.413 41.8269 -175.628 6.60157e-006 1.73317e-006 0.165614 -47.9819 80.4288 47.3923 8.13566 25.2327 -3.48738 -174.885 30.4235 -3.68226 4.54188e-006 -4.67731e-006 -0.681201 -7.25367 -43.9857 -2.63321 2.21457e-006 -1.97484e-007 -0.533915 64.0875 82.2183 -63.5206 -8.13449 25.2328 3.48688 
52.898 82.8468 4.14322 -1.51772 8.19788 2.33989 1.56723 -2.76251 0.600747 3.15152 -1.50918 1.07368 3.13834 0.134334 1.02093 -16.6364 -6.99518 -5.6028 13.397 8.96127 -7.70354 44.6064 -7.83241 -4.37517 65.0525 38.6309 59.0412 7.79705e-008 3.48043e-007 -3.42476e-006 -2.95846 -0.0245819 0.692227 -9.86611e-006 6.38615e-007 -3.0486 8.02891 -4.95145 0.697676 -64.8881 -8.42564 5.35131 -74.1195 51.4499 -65.8385 5.22341e-006 -3.22024e-006 9.08842e-006 13.8908 2.83078 -4.40751 1.53317e-005 -9.01268e-007 2.99413 -8.02889 -4.95141 -0.697695 172.344 30.5328 6.63247 180 7.01631e-015 179.387 168.569 41.2676 -175.779 6.60157e-006 1.73317e-006 0.167182 -46.7848 80.2405 46.2255 8.13566 25.2327 -3.48738 -175 30.0775 -3.55429 4.54188e-006 -4.67731e-006 -0.694093 -7.08634 -43.4358 -2.50662 2.21457e-006 -1.97484e-007 -0.542611 62.2648 82.0889 -61.7303 -8.13451 25.2328 3.48689 
52.9023 83.0131 4.16991 -1.51088 8.12162 2.38211 1.56302 -2.77779 0.595572 3.14304 -1.53992 1.0641 3.12995 0.103609 1.01149 -16.7108 -6.76362 -5.57332 13.4663 8.99255 -7.72142 44.3295 -7.83221 -4.36524 64.4869 38.9386 59.3968 7.79705e-008 3.48043e-007 -3.42476e-006 -2.99128 -0.0244692 0.695708 -9.86611e-006 6.38615e-007 -3.04661 8.02891 -4.95145 0.697676 -64.7553 -8.47944 5.3785 -73.387 52.0635 -66.3126 5.22341e-006 -3.22024e-006 9.08842e-006 13.9144 3.09291 -4.44783 1.53317e-005 -9.01268e-007 2.99486 -8.02889 -4.95141 -0.697695 172.419 30.1603 6.53382 180 7.01629e-015 179.375 168.731 40.6885 -175.932 6.60157e-006 1.73317e-006 0.169496 -45.5874 80.041 45.0609 8.13567 25.2327 -3.48739 -175.117 29.7223 -3.42505 4.54188e-006 -4.67731e-006 -0.707204 -6.91749 -42.8679 -2.38063 2.21457e-006 -1.97484e-007 -0.551203 60.447 81.9476 -59.9458 -8.13452 25.2328 3.48689 
52.9206 83.1437 4.19631 -1.50373 8.04534 2.42179 1.55895 -2.79266 0.591385 3.13487 -1.56979 1.05648 3.12184 0.0737478 1.00399 -16.786 -6.53129 -5.54502 13.5375 9.02288 -7.7407 44.0518 -7.83454 -4.35764 63.9162 39.246 59.7583 7.79705e-008 3.48043e-007 -3.42476e-006 -3.02431 -0.0243452 0.699153 -9.86611e-006 6.38615e-007 -3.04465 8.02891 -4.95145 0.697676 -64.6214 -8.53207 5.40512 -72.6375 52.678 -66.8005 5.22341e-006 -3.22024e-006 9.08842e-006 13.9416 3.33121 -4.48535 1.53317e-005 -9.01268e-007 2.99571 -8.02889 -4.95141 -0.697695 172.499 29.7781 6.43052 180 7.01627e-015 179.362 168.899 40.0876 -176.087 6.60157e-006 1.73317e-006 0.172388 -44.389 79.8289 43.8973 8.13567 25.2327 -3.48739 -175.234 29.3569 -3.29515 4.54188e-006 -4.67731e-006 -0.720402 -6.74795 -42.2801 -2.25606 2.21457e-006 -1.97484e-007 -0.559433 58.6358 81.7935 -58.1687 -8.13453 25.2328 3.4869 
52.8992 83.3234 4.24028 -1.49642 7.96874 2.45852 1.55503 -2.80698 0.588415 3.12702 -1.59853 1.05126 3.11403 0.0450157 0.998893 -16.8609 -6.29851 -5.51841 13.6099 9.05171 -7.76168 43.7746 -7.84029 -4.35317 63.3384 39.5538 60.126 7.79705e-008 3.48043e-007 -3.42476e-006 -3.05731 -0.0242399 0.702522 -9.86611e-006 6.38615e-007 -3.04274 8.02891 -4.95145 0.697676 -64.4852 -8.58276 5.43072 -71.8719 53.2922 -67.3033 5.22341e-006 -3.22024e-006 9.08842e-006 13.9744 3.53839 -4.51934 1.53317e-005 -9.01267e-007 2.99662 -8.02889 -4.95141 -0.697695 172.584 29.3851 6.32262 180 -7.01626e-015 179.35 169.072 39.4624 -176.242 6.60157e-006 1.73317e-006 0.175686 -43.1897 79.6029 42.7342 8.13568 25.2327 -3.48739 -175.351 28.9801 -3.1652 4.54188e-006 -4.6773e-006 -0.733553 -6.57854 -41.6711 -2.13366 2.21457e-006 -1.97484e-007 -0.567047 56.8334 81.6258 -56.4006 -8.13454 25.2328 3.4869 
